<svg width="512" height="512" viewBox="0 0 512 512" fill="none" xmlns="http://www.w3.org/2000/svg">
<circle cx="256" cy="256" r="256" fill="url(#paint0_linear)"/>
<path d="M162.88 338C161.12 338 159.6 337.36 158.32 336.08C157.04 334.8 156.4 333.28 156.4 331.52V221.6H116.56C114.8 221.6 113.28 220.96 112 219.68C110.72 218.4 110.08 216.88 110.08 215.12V176.48C110.08 174.72 110.72 173.2 112 171.92C113.28 170.64 114.8 170 116.56 170H257.2C258.96 170 260.48 170.64 261.76 171.92C263.04 173.2 263.68 174.72 263.68 176.48V215.12C263.68 216.88 263.04 218.4 261.76 219.68C260.48 220.96 258.96 221.6 257.2 221.6H217.36V331.52C217.36 333.28 216.72 334.8 215.44 336.08C214.16 337.36 212.64 338 210.88 338H162.88ZM248.999 338C247.239 338 245.719 337.36 244.439 336.08C243.159 334.8 242.519 333.28 242.519 331.52V176.48C242.519 174.72 243.159 173.2 244.439 171.92C245.719 170.64 247.239 170 248.999 170H328.679C351.399 170 368.119 174.16 378.839 182.48C389.719 190.8 395.159 203.44 395.159 220.4C395.159 227.28 393.159 233.44 389.159 238.88C385.159 244.16 380.759 248 375.959 250.4C382.359 252.96 387.719 257.52 392.039 264.08C396.519 270.48 398.759 277.52 398.759 285.2C398.759 302.96 392.999 316.24 381.479 325.04C369.959 333.68 353.159 338 331.079 338H248.999ZM322.679 233.12C325.879 233.12 328.279 232.08 329.879 230C331.639 227.76 332.519 225.2 332.519 222.32C332.519 219.44 331.639 216.88 329.879 214.64C328.279 212.4 325.879 211.28 322.679 211.28H302.519V233.12H322.679ZM324.839 296.72C328.519 296.72 331.239 295.52 332.999 293.12C334.919 290.72 335.879 288 335.879 284.96C335.879 281.92 334.839 279.2 332.759 276.8C330.839 274.4 328.199 273.2 324.839 273.2H302.519V296.72H324.839Z" fill="white"/>
<defs>
<linearGradient id="paint0_linear" x1="0" y1="0" x2="512" y2="512" gradientUnits="userSpaceOnUse">
<stop stop-color="#8FE6A8"/>
<stop offset="1" stop-color="#35AC56"/>
</linearGradient>
</defs>
</svg>
