<svg width="512" height="512" viewBox="0 0 512 512" fill="none" xmlns="http://www.w3.org/2000/svg">
<rect width="512" height="512" fill="url(#paint0_linear)"/>
<path d="M262.279 67H116C111.582 67 108 70.5817 108 75V162H222V130.359C222 127.188 225.514 125.278 228.176 127.003L324.921 189.708C327.328 191.268 327.359 194.779 324.981 196.382L228.235 261.571C225.578 263.361 222 261.458 222 258.254V235L108 235.5V436C108 440.418 111.582 444 116 444H214.812C219.23 444 222.812 440.418 222.812 436V327.31H275.64C346.531 327.31 404 269.841 404 198.95C404 126.076 344.924 67 272.05 67H262.279Z" fill="white"/>
<defs>
<linearGradient id="paint0_linear" x1="0" y1="0" x2="512" y2="512" gradientUnits="userSpaceOnUse">
<stop stop-color="#8FE5A8"/>
<stop offset="1" stop-color="#30974D"/>
</linearGradient>
</defs>
</svg>
